
        <svg xmlns="http://www.w3.org/2000/svg" xmlns:xlink="http://www.w3.org/1999/xlink" version="1.1" width="3200" height="1107.6658489857398" viewBox="0 0 3200 1107.6658489857398">
			
			<g transform="scale(10) translate(10, 10)">
				<defs id="SvgjsDefs1045"><linearGradient id="SvgjsLinearGradient1052"><stop id="SvgjsStop1053" stop-color="#616161" offset="0"/><stop id="SvgjsStop1054" stop-color="#e6e7e8" offset="0.5"/><stop id="SvgjsStop1055" stop-color="#616161" offset="1"/></linearGradient><linearGradient id="SvgjsLinearGradient1056"><stop id="SvgjsStop1057" stop-color="#616161" offset="0"/><stop id="SvgjsStop1058" stop-color="#e6e7e8" offset="0.5"/><stop id="SvgjsStop1059" stop-color="#616161" offset="1"/></linearGradient></defs><g id="SvgjsG1046" featureKey="symbolFeature-0" transform="matrix(1.0256410256410255,0,0,1.0256410256410255,249.74358974358972,-361.6923076923077)" fill="#000"><path xmlns="http://www.w3.org/2000/svg" d="M-167.5,390.5c-1.1,0-2-0.9-2-2c0-1.1,0.9-2,2-2c1.1,0,2,0.9,2,2C-165.5,389.6-166.4,390.5-167.5,390.5z   M-177.5,428.5c-2.2,0-4-1.8-4-4s1.8-4,4-4c2.2,0,4,1.8,4,4S-175.3,428.5-177.5,428.5z M-177.5,410.5c-2.2,0-4-1.8-4-4s1.8-4,4-4  c2.2,0,4,1.8,4,4S-175.3,410.5-177.5,410.5z M-177.5,392.5c-2.2,0-4-1.8-4-4c0-2.2,1.8-4,4-4c2.2,0,4,1.8,4,4  C-173.5,390.7-175.3,392.5-177.5,392.5z M-177.5,374.5c-2.2,0-4-1.8-4-4c0-2.2,1.8-4,4-4c2.2,0,4,1.8,4,4  C-173.5,372.7-175.3,374.5-177.5,374.5z M-194.5,414.5c-3.9,0-7-3.1-7-7c0-3.9,3.1-7,7-7c3.9,0,7,3.1,7,7  C-187.5,411.4-190.6,414.5-194.5,414.5z M-194.5,394.5c-3.9,0-7-3.1-7-7c0-3.9,3.1-7,7-7c3.9,0,7,3.1,7,7  C-187.5,391.4-190.6,394.5-194.5,394.5z M-195.5,374.5c-2.2,0-4-1.8-4-4c0-2.2,1.8-4,4-4c2.2,0,4,1.8,4,4  C-191.5,372.7-193.3,374.5-195.5,374.5z M-195.5,362.5c-1.1,0-2-0.9-2-2c0-1.1,0.9-2,2-2c1.1,0,2,0.9,2,2  C-193.5,361.6-194.4,362.5-195.5,362.5z M-214.5,414.5c-3.9,0-7-3.1-7-7c0-3.9,3.1-7,7-7s7,3.1,7,7  C-207.5,411.4-210.6,414.5-214.5,414.5z M-214.5,394.5c-3.9,0-7-3.1-7-7c0-3.9,3.1-7,7-7s7,3.1,7,7  C-207.5,391.4-210.6,394.5-214.5,394.5z M-213.5,374.5c-2.2,0-4-1.8-4-4c0-2.2,1.8-4,4-4c2.2,0,4,1.8,4,4  C-209.5,372.7-211.3,374.5-213.5,374.5z M-213.5,362.5c-1.1,0-2-0.9-2-2c0-1.1,0.9-2,2-2c1.1,0,2,0.9,2,2  C-211.5,361.6-212.4,362.5-213.5,362.5z M-231.5,374.5c-2.2,0-4-1.8-4-4c0-2.2,1.8-4,4-4c2.2,0,4,1.8,4,4  C-227.5,372.7-229.3,374.5-231.5,374.5z M-231.5,384.5c2.2,0,4,1.8,4,4c0,2.2-1.8,4-4,4c-2.2,0-4-1.8-4-4  C-235.5,386.3-233.7,384.5-231.5,384.5z M-241.5,408.5c-1.1,0-2-0.9-2-2c0-1.1,0.9-2,2-2c1.1,0,2,0.9,2,2  C-239.5,407.6-240.4,408.5-241.5,408.5z M-241.5,390.5c-1.1,0-2-0.9-2-2c0-1.1,0.9-2,2-2c1.1,0,2,0.9,2,2  C-239.5,389.6-240.4,390.5-241.5,390.5z M-231.5,402.5c2.2,0,4,1.8,4,4s-1.8,4-4,4c-2.2,0-4-1.8-4-4S-233.7,402.5-231.5,402.5z   M-231.5,420.5c2.2,0,4,1.8,4,4s-1.8,4-4,4c-2.2,0-4-1.8-4-4S-233.7,420.5-231.5,420.5z M-213.5,420.5c2.2,0,4,1.8,4,4  c0,2.2-1.8,4-4,4c-2.2,0-4-1.8-4-4C-217.5,422.3-215.7,420.5-213.5,420.5z M-213.5,432.5c1.1,0,2,0.9,2,2c0,1.1-0.9,2-2,2  c-1.1,0-2-0.9-2-2C-215.5,433.4-214.6,432.5-213.5,432.5z M-195.5,420.5c2.2,0,4,1.8,4,4c0,2.2-1.8,4-4,4c-2.2,0-4-1.8-4-4  C-199.5,422.3-197.7,420.5-195.5,420.5z M-195.5,432.5c1.1,0,2,0.9,2,2c0,1.1-0.9,2-2,2c-1.1,0-2-0.9-2-2  C-197.5,433.4-196.6,432.5-195.5,432.5z M-167.5,404.5c1.1,0,2,0.9,2,2c0,1.1-0.9,2-2,2c-1.1,0-2-0.9-2-2  C-169.5,405.4-168.6,404.5-167.5,404.5z" style="fill-rule: evenodd; clip-rule: evenodd;"/></g><g id="SvgjsG1047" featureKey="nameFeature-0" transform="matrix(2.125272931340155,0,0,2.125272931340155,93.87870498315147,-25.502845490621347)" fill="#000"><path d="M26.2 20.15 c0 2.2868 -0.82084 4.236 -2.4608 5.8488 c1.6399 1.5866 2.4607 3.5368 2.4607 5.8496 c0 1.1032 -0.21504 2.1522 -0.64512 3.1469 c-0.43092 0.99568 -1.0158 1.8628 -1.7553 2.6024 c-0.7404 0.7404 -1.6075 1.3252 -2.6023 1.7553 c-0.99568 0.43092 -2.0446 0.64596 -3.147 0.64596 l-10.53 0 l0 -4.6802 l10.53 0 c0.4572 0 0.90124 -0.086524 1.3313 -0.26223 c0.43008 -0.17484 0.80684 -0.424 1.1294 -0.74656 s0.57172 -0.69932 0.74656 -1.1294 s0.26226 -0.87328 0.26226 -1.3313 c0 -0.4572 -0.087424 -0.90124 -0.26226 -1.3313 c-0.1757 -0.43008 -0.41784 -0.80684 -0.7264 -1.1294 c-0.30945 -0.32254 -0.6792 -0.57776 -1.1093 -0.7666 c-0.43008 -0.18793 -0.88728 -0.28234 -1.3715 -0.28234 l-15.17 0 l0 -4.64 l15.17 0 c0.4572 0 0.90124 -0.093516 1.3313 -0.28234 c0.43008 -0.18793 0.80684 -0.44408 1.1294 -0.76664 c0.32254 -0.32254 0.57168 -0.69928 0.74652 -1.1294 s0.26226 -0.88728 0.26226 -1.3715 c0 -0.4572 -0.087424 -0.90124 -0.26226 -1.3313 c-0.1757 -0.43008 -0.42396 -0.80684 -0.74652 -1.1294 c-0.32258 -0.32254 -0.69932 -0.5708 -1.1294 -0.74648 c-0.43008 -0.17484 -0.87416 -0.26226 -1.3313 -0.26226 l-10.53 0 l-4.64 -4.68 l15.17 0 c1.0752 0 2.118 0.2159 3.1268 0.64512 c1.0088 0.43092 1.882 1.0158 2.6224 1.7553 c0.73952 0.7404 1.3243 1.6075 1.7553 2.6023 c0.4292 0.99568 0.64512 2.0446 0.64512 3.147 z M25.325 31.85 c0 -2.0848 -0.71756 -3.793 -2.1948 -5.2204 l-0.64424 -0.62328 l0.639 -0.62852 c1.4808 -1.4572 2.2002 -3.167 2.2002 -5.2272 c0 -0.97732 -0.1923 -1.9188 -0.57344 -2.8008 c-0.38461 -0.88812 -0.91256 -1.6731 -1.5708 -2.3313 c-0.65736 -0.65648 -1.4467 -1.1844 -2.347 -1.5691 c-0.89512 -0.38113 -1.8322 -0.5752 -2.7832 -0.5752 l-13.073 0 l2.9048 2.931 l10.166 0 c0.56732 0 1.1259 0.10926 1.66 0.32606 c0.53932 0.22027 1.0166 0.53584 1.4196 0.9388 s0.71852 0.88024 0.93792 1.4178 c0.2168 0.53584 0.32695 1.0936 0.32695 1.6618 c0 0.5944 -0.11016 1.167 -0.32695 1.7002 c-0.21856 0.5376 -0.53408 1.0148 -0.93796 1.4187 c-0.39859 0.39859 -0.86888 0.71852 -1.3977 0.94928 c-0.53848 0.23602 -1.1041 0.35578 -1.681 0.35578 l-14.296 0 l0 2.8917 l14.296 0 c0.6014 0 1.181 0.11976 1.7212 0.35578 c0.53584 0.23426 1.0035 0.55856 1.3908 0.96244 c0.38375 0.40124 0.68884 0.8742 0.90472 1.4048 c0.2168 0.53496 0.32695 1.0936 0.32695 1.6618 s-0.11016 1.1268 -0.32695 1.66 c-0.21856 0.5376 -0.53408 1.0149 -0.93796 1.4188 s-0.88112 0.7194 -1.4188 0.93796 c-0.53148 0.2168 -1.0901 0.32695 -1.66 0.32695 l-9.6558 0 l0 2.9319 l9.6558 0 c0.97732 0 1.9196 -0.1923 2.7999 -0.57344 c0.889 -0.38375 1.6731 -0.9126 2.3313 -1.5709 c0.65736 -0.65736 1.1862 -1.4423 1.5708 -2.3313 c0.38024 -0.88028 0.57344 -1.8226 0.57344 -2.7999 z M50.846000000000004 14.744 c1.8287 1.8296 2.743 4.034 2.743 6.6172 c0 2.5551 -0.91432 4.7608 -2.743 6.6164 c-1.8287 1.8025 -4.0212 2.7038 -6.576 2.7038 l-9.3603 0 l0 9.3166 l-4.64 0 l0 -13.999 l14 0 c1.264 0 2.3532 -0.45628 3.2676 -1.3715 c0.91432 -0.91348 1.3715 -2.0026 1.3715 -3.2676 c0 -1.2902 -0.4572 -2.3934 -1.3715 -3.3077 s-2.0035 -1.3715 -3.2676 -1.3715 l-9.3603 0 l-4.64 -4.68 l14 0 c2.5551 0 4.7468 0.91524 6.576 2.744 z M50.233000000000004 27.354 c1.6678 -1.6915 2.4826 -3.6557 2.4818 -5.994 c0 -2.3619 -0.81384 -4.3244 -2.487 -5.9984 c-1.674 -1.674 -3.6233 -2.4878 -5.958 -2.4878 l-11.902 0 l2.9074 2.9327 l8.9958 0 c1.4983 0 2.8051 0.54724 3.8856 1.6276 c1.0796 1.0796 1.6276 2.4004 1.6276 3.9258 c0 1.4991 -0.54808 2.8069 -1.6285 3.8864 c-1.0787 1.0796 -2.3864 1.6276 -3.8856 1.6276 l-13.126 0 l0 12.251 l2.8917 0 l0 -9.3192 l10.234 0 c2.3375 0 4.2884 -0.8016 5.9636 -2.452 z M62.3 35.3204 l13.999 0 l0 4.6802 l-18.639 0 z M75.426 39.12624 l0 -2.9319 l-12.762 0 l-2.9065 2.9319 l15.668 0 z M62.3 12 l0 16.982 l-4.64 4.68 l0 -21.662 l4.64 0 z M61.426 28.622 l0 -15.749 l-2.8917 0 l0 18.665 z M85.57480000000001 12 l11.411 22.769 l-2.6154 5.2308 l-14 -28 l5.2046 0 z M81.7836 12.873999999999999 l12.586 25.171 l1.6381 -3.2754 l-10.973 -21.896 l-3.2509 0 z"/></g><g id="SvgjsG1048" featureKey="sloganFeature-0" transform="matrix(0.7689978808255183,0,0,0.7689978808255183,98.8926433742956,75.38616635680107)" fill="#000"><path d="M8.4602 13 l7.0002 -7.0002 l0 14 l-2.32 0 l0 -8.3717 l-4.6802 4.6802 l-7.0202 -7.0508 l0 -3.2575 z M15.023 19.56274 l-0.000019531 -12.507 l-6.254 6.2536 l-0.30858 0.30858 l-0.309 -0.30814 l-6.2742 -6.2562 l0 2.0236 l6.5836 6.6124 l5.1164 -5.1164 l0 8.9897 l1.4458 0 z M19.185 19.80746 l2.3196 -2.1478 l7.0001 0 l0 2.3401 l-9.3197 0 l0 -0.1923 z M28.067999999999998 18.0972 l-6.3917 0 l-1.5835 1.4659 l7.9752 0 l0 -1.4659 z M19.185 6 l9.3201 0 l0 2.3401 l-7.0001 0 z M28.067999999999998 7.9030000000000005 l0 -1.4659 l-7.8341 0 l1.4533 1.4659 l6.3808 0 z M19.185 14.17 l0 -2.32 l9.3197 0 l0 2.32 l-9.3197 0 z M19.622099999999996 12.2872 l0 1.4458 l8.4455 0 l0 -1.4458 l-8.4455 0 z M35.2356 6 l3.9738 5.1042 l-1.4725 1.896 l-5.487 -7.0002 l2.9856 0 z M37.7352 12.289 l0.92046 -1.1853 l-3.6338 -4.667 l-1.8742 0 z M32.25 19.999375 l5.487 -7.0002 l1.4725 1.8964 l-3.9738 5.1038 l-2.9856 0 z M35.0218 19.5623 l3.6338 -4.667 l-0.92046 -1.1853 l-4.5876 5.8524 l1.8742 0 z M46.169 6 l-5.467 7.0002 l-1.493 -1.896 l3.9944 -5.1042 l2.9655 0 z M39.765 11.1028 l0.9362 1.1884 l4.5722 -5.8546 l-1.8567 0 z M39.2094 14.8962 l1.493 -1.8964 l5.467 7.0002 l-2.9655 0 z M43.417 19.56228 l1.8567 0 l-4.5722 -5.8546 l-0.9362 1.1888 z M49.894999999999996 6.029999999999999 l2.32 2.3004 l0 9.3 l-2.32 2.34 l0 -13.94 z M51.7774 17.450400000000002 l0 -8.9385 l-1.4458 -1.4332 l0 11.83 z M59.652 9.702 c-0.41698 0.42396 -0.75 0.91832 -0.9987 1.483 c-0.24912 0.56514 -0.37324 1.1696 -0.37324 1.8156 c0 0.64512 0.12412 1.2505 0.37324 1.8152 c0.2487 0.56514 0.5848 1.0595 1.0088 1.483 c0.42352 0.42396 0.91786 0.75614 1.483 0.99826 c0.56468 0.24258 1.1696 0.3632 1.8151 0.3632 l2.7134 1.7951 c-0.84092 0.3632 -1.7448 0.54502 -2.7134 0.54502 c-0.96768 0 -1.8759 -0.18531 -2.723 -0.55508 c-0.84748 -0.3702 -1.5905 -0.87456 -2.2296 -1.5131 c-0.63856 -0.639 -1.1429 -1.3851 -1.5127 -2.2392 c-0.3702 -0.85404 -0.55508 -1.7518 -0.55508 -2.6928 c0 -0.9681 0.18488 -1.8763 0.55508 -2.7234 c0.36976 -0.84704 0.87414 -1.587 1.5127 -2.2186 c0.639 -0.63244 1.3825 -1.1329 2.2296 -1.5027 c0.84704 -0.3702 1.7548 -0.55508 2.723 -0.55508 c0.96856 0 1.8724 0.18139 2.7134 0.54504 c0.84048 0.3632 1.5835 0.86714 2.229 1.5131 l-1.6539 1.6338 c-0.9279 -0.90126 -2.024 -1.3519 -3.288 -1.3519 c-0.64554 0 -1.2539 0.12107 -1.8256 0.3632 c-0.57212 0.24212 -1.066 0.57474 -1.483 0.99826 z M58.2534 14.991399999999999 c-0.2723 -0.61714 -0.4105 -1.2872 -0.4105 -1.9917 c0 -0.70412 0.13855 -1.3746 0.41086 -1.9922 c0.26836 -0.61016 0.63376 -1.1526 1.0866 -1.6128 c0.4563 -0.4633 1.0027 -0.8313 1.6242 -1.0944 c0.62326 -0.26398 1.2946 -0.39774 1.9957 -0.39774 c1.2338 0 2.3336 0.3995 3.2746 1.188 l1.0376 -1.0249 c-0.5271 -0.46286 -1.1215 -0.83874 -1.7723 -1.1198 c-0.78148 -0.33742 -1.636 -0.50876 -2.5398 -0.50876 c-0.90342 0 -1.7605 0.17439 -2.5486 0.51792 c-0.79416 0.3466 -1.4996 0.82212 -2.0966 1.413 c-0.5966 0.59004 -1.0739 1.2907 -1.4196 2.0826 c-0.34398 0.7876 -0.51838 1.6451 -0.51838 2.549 c0 0.8772 0.17439 1.7247 0.5188 2.5192 c0.34572 0.79854 0.82388 1.5066 1.4209 2.104 c0.59748 0.5966 1.3025 1.0752 2.0954 1.4213 c0.78804 0.34398 1.6456 0.51838 2.5482 0.51838 c0.60402 0 1.1862 -0.076484 1.7396 -0.22814 l-1.8733 -1.2395 c-0.65386 -0.015742 -1.2767 -0.14904 -1.8536 -0.39686 c-0.61408 -0.26268 -1.1591 -0.62982 -1.6198 -1.0909 c-0.46066 -0.4598 -0.83044 -1.0035 -1.0997 -1.6159 z M81.242 9.403 c0.99522 0.99564 1.4996 2.2058 1.4991 3.5966 c0 1.3903 -0.50352 2.6068 -1.497 3.615 c-1 0.98516 -2.2094 1.4821 -3.5998 1.4821 c-1.389 0 -2.6044 -0.49608 -3.6128 -1.4751 c-0.98778 -1.0175 -1.4843 -2.233 -1.4843 -3.622 c0 -1.3899 0.49696 -2.5992 1.4773 -3.5944 c1.0127 -0.99826 2.229 -1.5022 3.6198 -1.5022 c1.3921 0 2.6024 0.50482 3.5976 1.5 z M80.93299999999999 16.3082 c0.91436 -0.9279 1.3715 -2.0302 1.3715 -3.3082 c0 -1.2771 -0.45716 -2.3728 -1.3715 -3.2876 s-2.0106 -1.372 -3.288 -1.372 s-2.3804 0.45716 -3.3082 1.372 c-0.90126 0.91436 -1.3519 2.01 -1.3519 3.2876 s0.45062 2.3804 1.3519 3.3082 c0.9279 0.90126 2.0302 1.3519 3.3082 1.3519 c1.2771 0 2.3734 -0.45062 3.288 -1.3519 z M82.587 8.058 c1.3851 1.372 2.0778 3.0198 2.0782 4.9424 c0 1.9502 -0.69276 3.598 -2.0778 4.9424 c-1.3588 1.372 -3.0058 2.0578 -4.9424 2.0578 s-3.5844 -0.6862 -4.9424 -2.0578 c-1.372 -1.3584 -2.0578 -3.0058 -2.0578 -4.9424 c0 -1.9231 0.68576 -3.5704 2.0578 -4.9424 c1.3449 -1.372 2.9922 -2.0578 4.9424 -2.0578 c1.9362 0 3.5836 0.6862 4.942 2.0578 z M82.277 17.6346 c1.3147 -1.2767 1.9511 -2.7906 1.9515 -4.6346 c0 -1.8182 -0.63724 -3.3332 -1.9485 -4.6316 c-1.288 -1.3007 -2.803 -1.9314 -4.6346 -1.9314 c-1.8453 0 -3.3598 0.63026 -4.6304 1.9266 c-1.3016 1.3016 -1.9327 2.8174 -1.9327 4.6364 c0 1.8322 0.6307 3.347 1.9284 4.6316 c1.2876 1.3003 2.8026 1.931 4.6348 1.931 c1.8313 0 3.3466 -0.6307 4.6316 -1.9279 z"/></g>
			</g>
		</svg>
	